<?xml version="1.0" encoding="utf-8"?>
<!-- Generator: Adobe Illustrator 23.0.3, SVG Export Plug-In . SVG Version: 6.00 Build 0)  -->
<svg version="1.1" id="Layer_1" xmlns="http://www.w3.org/2000/svg" xmlns:xlink="http://www.w3.org/1999/xlink" x="0px" y="0px"
	 viewBox="0 0 512 266.3" style="enable-background:new 0 0 512 266.3;" xml:space="preserve">
<style type="text/css">
	.st0{fill:#FD2920;}
	.st1{fill:#FFFFFF;}
</style>
<g>
	<polygon class="st0" points="128.1,0 15.5,0 11.2,35.5 123.7,35.5 	"/>
	<polygon class="st0" points="118.4,78.3 122.1,49 9.5,49 0,126.4 112.5,126.4 116.7,92.8 46.2,92.8 48,78.3 	"/>
	<path class="st0" d="M381.2,28.8C383,13.7,376.6,0,353.2,0c0,0-176.2,0-186.3,0c-19.1,0-31.7,10-33.5,25
		c-0.7,5.5-1.3,10.4-1.3,10.4h248.2C380.4,35.4,380.8,31.7,381.2,28.8z"/>
	<path class="st0" d="M223,49c-7.3,0-78.1,0-92.4,0c-3.1,20.2,7,29.3,21.4,29.3c7.8,0,56.9,0,56.9,0l-1.8,14.5h-81.9l-4.1,33.6
		c0,0,89.1,0.1,92.8,0c3-0.2,23.9-0.8,30.9-17.8c2.3-5.5,4.4-25.4,4.9-29.5C252.9,54.8,236.2,49,223,49z"/>
	<path class="st0" d="M261.5,49l-9.5,77.4h42.1l5.9-48.1h52.8c15,0,23-8,24.5-18.9c0.8-5.5,1.3-10.4,1.3-10.4H261.5z"/>
	<polygon class="st0" points="377.8,126.4 419.9,126.4 429.4,49 387.3,49 	"/>
	<polygon class="st0" points="457.7,126.4 499.8,126.4 509.3,49 467.2,49 	"/>
	<path class="st0" d="M485.1,0h-91.8l-4.4,35.5h122c0,0,0.2-1.3,0.7-5.5C514.6,6.8,499.6,0,485.1,0z"/>
</g>
<polygon points="134,161.1 121.1,266.3 378,266.3 390.9,161.1 "/>
<g>
	<path class="st1" d="M171.3,180.5h-18l-8,64.8h9.2l3.1-25.3h8.8c4.2,0,7.9-3.4,8.5-7.5l3-24.5C178.5,183.8,175.5,180.5,171.3,180.5
		z M166.1,210c-0.1,1.2-1.2,2.2-2.5,2.2h-5l2.9-24h5c1.2,0,2.1,1,1.9,2.2L166.1,210z"/>
	<path class="st1" d="M201.3,180.5h-18.2l-8,64.8h9.4l3.4-27.4h2.5l0.6,27.4h9.8l-0.8-28.2c2.7-1.2,4.7-3.8,5.1-6.8l2.7-22.3
		C208.4,183.8,205.4,180.5,201.3,180.5z M196.3,207.9c-0.1,1.2-1.2,2.2-2.5,2.2h-5l2.7-21.9h5c1.2,0,2.1,1,1.9,2.2L196.3,207.9z"/>
	<path class="st1" d="M212.5,183l-7.3,59.8c-0.2,1.4,0.8,2.5,2.2,2.5H227l1-7.8H215l2.5-20.8h9.9l1-7.8h-9.9l2.5-20.8H234l1-7.8
		h-19.6C214,180.5,212.7,181.6,212.5,183z"/>
	<path class="st1" d="M274.5,180.5H265c-0.9,0-1.8,0.7-2,1.6L251.8,226l-0.4-43.9c0-0.9-0.7-1.6-1.6-1.6h-9.5
		c-1.4,0-2.7,1.1-2.8,2.5l-7.7,62.3h9.2l4.9-39.8c0.2-1.8,0.4-3.7,0.5-5.5l0.4-8.9l0.5,54.2h8.4l13.8-54.2l-1.8,8.9
		c-0.4,1.8-0.7,3.7-0.9,5.5l-4.9,39.8h9.2l7.7-62.3C276.9,181.6,275.9,180.5,274.5,180.5z"/>
	<polygon class="st1" points="273.8,245.3 283,245.3 290.9,180.5 281.8,180.5 	"/>
	<path class="st1" d="M305.9,236.7c-0.2,1.4-1.4,2.5-2.8,2.5h-2.8c-1.4,0-2.4-1.1-2.2-2.5l6.9-56.2h-9.2l-7.1,57.7
		c-0.6,4.8,2.9,8.8,7.7,8.8h8.6c4.8,0,9.3-3.9,9.9-8.8l7.1-57.7h-9.2L305.9,236.7z"/>
	<path class="st1" d="M362.5,180.5H353c-0.9,0-1.8,0.7-2,1.6L339.8,226l-0.4-43.9c0-0.9-0.7-1.6-1.6-1.6h-9.5
		c-1.4,0-2.7,1.1-2.8,2.5l-7.7,62.3h9.2l4.9-39.8c0.2-1.8,0.4-3.7,0.5-5.5l0.4-8.9l0.5,54.2h8.4l13.8-54.2l-1.8,8.9
		c-0.4,1.8-0.7,3.7-0.9,5.5l-4.9,39.8h9.2l7.7-62.3C364.9,181.6,363.9,180.5,362.5,180.5z"/>
</g>
</svg>
