<?xml version="1.0" encoding="UTF-8" standalone="no"?>
<!-- Created with Inkscape (http://www.inkscape.org/) -->

<svg
   xmlns:dc="http://purl.org/dc/elements/1.1/"
   xmlns:cc="http://creativecommons.org/ns#"
   xmlns:rdf="http://www.w3.org/1999/02/22-rdf-syntax-ns#"
   xmlns:svg="http://www.w3.org/2000/svg"
   xmlns="http://www.w3.org/2000/svg"
   xmlns:inkscape="http://www.inkscape.org/namespaces/inkscape"
   version="1.1"
   width="1162.625"
   height="263.88751"
   id="svg2"
   xml:space="preserve"><metadata
     id="metadata8"><rdf:RDF><cc:Work
         rdf:about=""><dc:format>image/svg+xml</dc:format><dc:type
           rdf:resource="http://purl.org/dc/dcmitype/StillImage" /></cc:Work></rdf:RDF></metadata><defs
     id="defs6" /><g
     transform="matrix(1.25,0,0,-1.25,0,263.8875)"
     id="g10"><g
       transform="scale(0.1,0.1)"
       id="g12"><path
         d="m 6686.58,1079.62 c 12.63,113.83 66.18,216.23 146.31,294.54 4.55,4.48 9.31,9.02 14.04,13.3 4.75,4.27 9.7,8.34 14.72,12.5 74.28,61.3 164.65,102.36 257.4,119.45 1.63,0.15 3.32,0.31 5.02,0.67 13.42,2.3 26.79,4.07 40.15,5.41 16.93,1.59 34.1,2.42 51.42,2.42 4.04,0 8.23,-0.4 12.14,-0.52 14.08,-0.27 28.68,-1.46 43.35,-2.73 105.65,-11.62 207.38,-55.45 290.95,-127.15 l 55.58,-47.94 240.15,248.03 -62.24,53.99 c -145.73,126.29 -367.64,205 -579.93,205 -560.13,0 -894.57,-421.31 -894.57,-828.86 0,0 0,0 0,-0.08 0,-0.04 0,-0.04 0,-0.08 0,-407.422 334.44,-828.781 894.57,-828.781 212.29,0 434.2,78.699 579.93,204.961 l 62.24,54.02 -240.15,247.949 -55.58,-47.891 c -83.57,-71.758 -185.3,-115.539 -290.95,-127.09 -14.67,-1.359 -29.27,-2.558 -43.35,-2.867 -3.91,-0.051 -8.1,-0.519 -12.14,-0.519 -17.32,0 -34.49,0.988 -51.42,2.457 -13.36,1.261 -26.73,3.152 -40.15,5.41 -1.7,0.39 -3.39,0.601 -5.02,0.871 -92.75,16.93 -183.12,58.109 -257.4,119.238 -5.02,4.133 -9.97,8.242 -14.72,12.563 -4.73,4.257 -9.49,8.769 -14.04,13.277 -80.13,78.211 -133.68,180.75 -146.31,294.582 -1.62,15.43 -2.44,31.21 -2.63,47.23 0,1.58 -0.29,3.09 -0.29,4.67 0,1.62 0.29,3.16 0.29,4.7 0.19,16.06 1.01,31.8 2.63,47.27 z M 5432.69,877.621 c 44.86,110.16 109.92,269.949 175.62,430.099 65.54,-160.15 130.71,-319.939 175.53,-430.099 l -351.15,0 z m 39.08,955.909 -517.11,-1202.311 -163.87,-381.09 -12.37,-28.559 383.62,0 c 0,0 110.46,268.168 139.82,339.078 l 612.78,0 c 29.55,-70.91 139.94,-339.078 139.94,-339.078 l 383.35,0 -693.21,1611.96 -272.95,0 z m 2435.41,-1611.96 1081.4,0 0,328.61 c 0,0 -586.6,0 -714.63,0 l 0,320.84 c 128.03,0 714.63,0 714.63,0 l 0,328.37 c 0,0 -586.6,0 -714.63,0 l 0,305.78 c 128.03,0 714.63,0 714.63,0 l 0,328.36 -1081.4,0 0,-1611.96 z m -4568.95,949.81 -214.57,68.98 c -191.32,61.19 -191.32,123.64 -191.32,153.78 0,45.92 21.83,153.55 224.43,153.55 204.76,0 348.38,-78.08 475.46,-182.18 0,0 70.48,153.18 152.74,263.06 0,0 -200.06,243.92 -625.91,243.92 -350.72,0 -605.07,-203.58 -605.07,-484.2 0,-223 141.87,-378.68 433.72,-476.13 l 216.91,-72.781 c 137.85,-46.199 207.73,-100.059 207.73,-159.75 0,-83.188 -104.25,-147.981 -237.74,-147.981 -218.06,0 -258.6,99.633 -269.56,197.313 l -378.75,0 1.1,-16.621 c 29.19,-316.68 267.19,-505.481 636.17,-505.481 369.42,0 627.38,200.653 627.38,487.961 0,220.418 -152.13,380.81 -452.72,476.56 z m 1041.46,-136.54 c 0,0 -57.98,0 -112.44,0 l 0,481.76 c 54.46,0 112.44,0 112.44,0 288.7,0 288.7,-182.1 288.7,-241.71 0,-59.48 0,-240.05 -288.7,-240.05 z M 5019,1274.89 c 0,270.7 -209.9,558.64 -599.01,558.64 l -503.35,0 0,-1611.96 350.61,0 c 0,0 0,385.442 0,496.231 68.58,0 152.74,0 152.74,0 389.11,0 599.01,286.909 599.01,557.089"
         inkscape:connector-curvature="0"
         id="path14"
         style="fill:#f7de05;fill-opacity:1;fill-rule:nonzero;stroke:none" /><path
         d="m 1055.63,426.961 c -329.329,0 -596.376,264.961 -596.376,591.749 0,237.04 140.527,441.49 343.387,535.9 l 0,127.75 c 0,138.63 113.238,251 252.989,251 139.73,0 252.8,-112.37 252.8,-251 l -4.46,-125.74 c 205.32,-93.5 348.02,-299.13 348.02,-537.91 0,-326.788 -267.01,-591.749 -596.36,-591.749 z m 0,1684.109 C 472.73,2111.07 0,1638.5 0,1055.57 0,472.559 472.73,0 1055.63,0 c 582.88,0 1055.44,472.559 1055.44,1055.57 0,582.93 -472.56,1055.5 -1055.44,1055.5 z m 0,-833.92 c -139.63,0 -252.942,-112.29 -252.942,-250.85 0,-138.589 113.312,-250.909 252.942,-250.909 139.49,0 252.77,112.32 252.77,250.909 0,138.56 -113.28,250.85 -252.77,250.85"
         inkscape:connector-curvature="0"
         id="path16"
         style="fill:#f7de05;fill-opacity:1;fill-rule:nonzero;stroke:none" /><path
         d="m 9148.02,363.859 0,-25.007 -42.24,0 0,-116.114 -29.74,0 0,116.114 -42.34,0 0,25.007 114.32,0"
         inkscape:connector-curvature="0"
         id="path18"
         style="fill:#fadc04;fill-opacity:1;fill-rule:nonzero;stroke:none" /><path
         d="m 9258.65,363.859 42.38,0 0,-141.121 -27.44,0 0,95.434 c 0,2.758 0.03,6.617 0.09,11.566 0.07,4.93 0.1,8.75 0.1,11.422 l -26.73,-118.422 -28.64,0 -26.53,118.422 c 0,-2.672 0.02,-6.492 0.08,-11.422 0.07,-4.949 0.1,-8.808 0.1,-11.566 l 0,-95.434 -27.43,0 0,141.121 42.85,0 25.68,-110.968 25.49,110.968"
         inkscape:connector-curvature="0"
         id="path20"
         style="fill:#fadc04;fill-opacity:1;fill-rule:nonzero;stroke:none" /></g></g></svg>