<?xml version="1.0" encoding="utf-8"?>
<!-- Generator: Adobe Illustrator 24.3.0, SVG Export Plug-In . SVG Version: 6.00 Build 0)  -->
<svg version="1.1" id="Camada_1" xmlns="http://www.w3.org/2000/svg" xmlns:xlink="http://www.w3.org/1999/xlink" x="0px" y="0px"
	 viewBox="3.6 0 1356.3 783.19998" height="577.45337" width="1000" style="enable-background:new 0 0 1360 783;" xml:space="preserve">
<style type="text/css">
	.st0{fill:url(#SVGID_1_);}
	.st1{fill:#241C32;}
</style>
<g>
	<g>
		<linearGradient id="SVGID_1_" gradientUnits="userSpaceOnUse" x1="614.5771" y1="488.4069" x2="940.7932" y2="99.6377">
			<stop  offset="0.28" style="stop-color:#FA1660"/>
			<stop  offset="0.78" style="stop-color:#FF7D17"/>
		</linearGradient>
		<path class="st0" d="M1047.9,189.5H852c-2.6,0-3.8-1.3-4.5-3.8L786,0l-60.2,185.7c-0.6,2.6-1.9,3.8-4.5,3.8H525.4l158.2,115.3
			c1.9,1.3,3.8,1.3,5.8,0c43.5-26.9,82.6-46.1,163.9-66.6C779,295.8,706,361.1,645.8,436.7c-1.9,2.6-2.6,3.2-3.8,7l-17.3,53.1
			l158.2-114.6c2.6-1.9,3.8-1.9,6.4,0l158.2,114.6l-60.2-187c-0.6-2.6,0-3.8,1.9-5.1L1047.9,189.5z"/>
		<path class="st1" d="M1155.5,139.6h53.1c32,0,52.5,16.6,52.5,45.5c0,31.4-20.5,51.9-52.5,51.9h-53.1V139.6z M1247.1,300.3
			c55.1-7,100.5-54.4,100.5-114.6c0-78.1-53.1-121-138.9-121h-138.3v393.2h85.2V300.3l105.7,157.5h98.6L1247.1,300.3z"/>
		<polygon class="st1" points="299.4,64.7 299.4,142.1 385.8,142.1 385.8,457.8 472.3,457.8 472.3,142.1 558.7,142.1 558.7,64.7 		
			"/>
		<path class="st1" d="M139.3,209.4c-25.6-11.5-35.2-24.3-35.2-41c0-19.2,16-35.2,41.6-34.6c22.4,0.6,39.7,12.8,51.9,41.6l73.6-32.7
			c-20.5-52.5-62.1-83.2-129.3-83.2C70.8,59.5,18.3,106.3,18.3,169c0,42.9,21.1,76.8,71.1,101.8l55.1,27.5
			c30.7,15.4,45.5,26.9,45.5,49.3c0,24.3-19.8,41.6-45.5,41.6c-27.5,0-52.5-15.4-64-49.9L3.6,361.8
			c17.9,64.7,71.1,102.5,140.2,102.5c74.9,0,132.5-48,132.5-117.2c0-53.1-28.8-88.4-83.9-113.3L139.3,209.4z"/>
	</g>
	<g>
		<path class="st1" d="M224.3,663c-6.9-8.2-16.9-12.9-29.8-12.9c-26.2,0-45.5,21.3-45.5,50.6c0,29.3,19.3,50.6,44.4,50.6
			c14,0,25.3-6.2,32.4-16.9l28.9,21.5c-13.1,18.7-35.3,27.3-56.8,27.3c-49.1,0-84.8-32.2-84.8-82.6c0-50.4,35.7-82.6,84.8-82.6
			c17.5,0,39.7,6,53.1,23.1L224.3,663z"/>
		<path class="st1" d="M287,622.1h34.6v58.6h67.3v-58.6h34.6v157.2h-34.6v-67.9h-67.3v67.9H287V622.1z"/>
		<path class="st1" d="M520.6,622.1h28.6l68.4,157.2h-39.1L565,746h-61.1l-13.1,33.3h-38.2L520.6,622.1z M533.9,667.9l-19.1,48.9
			h38.4L533.9,667.9z"/>
		<path class="st1" d="M646.7,622.1h47.1l66.8,109.2h0.4V622.1h34.6v157.2h-45.3l-68.6-111.9h-0.4v111.9h-34.6V622.1z"/>
		<path class="st1" d="M841,622.1H888l66.8,109.2h0.4V622.1H990v157.2h-45.3L876,667.4h-0.4v111.9H841V622.1z"/>
		<path class="st1" d="M1036.6,622.1h106.8v32h-72.2v29.3h68.2v32h-68.2v32h76.2v32h-110.8V622.1z"/>
		<path class="st1" d="M1189.8,622.1h34.6v125.2h64.2v32h-98.8V622.1z"/>
	</g>
</g>
</svg>
